<?xml version="1.0" encoding="UTF-8"?>
<svg width="32px" height="32px" viewBox="0 0 32 32" version="1.1" xmlns="http://www.w3.org/2000/svg" xmlns:xlink="http://www.w3.org/1999/xlink">
    <!-- Generator: sketchtool 52 (66869) - http://www.bohemiancoding.com/sketch -->
    <title>8553DB83-312A-4E98-AEC3-E5B6750F903B@2x</title>
    <desc>Created with sketchtool.</desc>
    <g id="Ver1" stroke="none" stroke-width="1" fill="none" fill-rule="evenodd">
        <g id="icon" transform="translate(-180.000000, -178.000000)">
            <g id="ic-bath" transform="translate(180.000000, 178.000000)">
                <rect id="Rectangle" fill="#F6F6F6" x="0.219178082" y="0.219178082" width="31.5616438" height="31.5616438" rx="15.7808219"></rect>
                <path d="M22.4484647,24.2523178 C22.2396318,24.2523178 22.0351123,24.1754126 21.8709918,24.0272833 L21.052914,23.2889512 L10.9471912,23.2889512 L10.1291134,24.0272833 C9.87114959,24.2599978 9.51345096,24.3172296 9.19594082,24.1758334 C8.87832548,24.0346477 8.68106521,23.7310247 8.68106521,23.383531 L8.68106521,22.6398334 C8.26297863,22.3320022 7.32075836,21.4973019 6.61977425,19.8283222 C5.96676384,18.2733852 5.70375014,16.8461677 5.60906521,16.1854773 L5.49986192,16.1854773 C4.76342356,16.1854773 4.16438356,15.5863321 4.16438356,14.8499989 L4.16438356,14.8315879 C4.16438356,14.0951496 4.76342356,13.4961096 5.49975671,13.4961096 L23.3117808,13.4961096 L23.3117808,12.8586696 C23.3117808,12.6262561 23.5001892,12.4378477 23.7326027,12.4378477 C23.9650163,12.4378477 24.1534247,12.6262561 24.1534247,12.8586696 L24.1534247,13.4961096 L24.5303759,13.4961096 L24.5303759,9.61160767 C24.5303759,9.04791671 24.0717852,8.58932603 23.5080942,8.58932603 L23.4789523,8.58932603 C22.9153666,8.58932603 22.4566707,9.04791671 22.4566707,9.61160767 L22.4566707,10.2214838 C22.4566707,10.4538974 22.2682623,10.6423058 22.0358488,10.6423058 C21.8034352,10.6423058 21.6150268,10.4538974 21.6150268,10.2214838 L21.6150268,9.61160767 C21.6150268,8.58385534 22.4510948,7.74768219 23.4789523,7.74768219 L23.5080942,7.74768219 C24.5359518,7.74768219 25.3720197,8.58385534 25.3720197,9.61160767 L25.3720197,13.4961096 L25.7315068,13.4961096 L25.7315068,12.8586696 C25.7315068,12.6262561 25.9199152,12.4378477 26.1523288,12.4378477 C26.3847423,12.4378477 26.5731507,12.6262561 26.5731507,12.8586696 L26.5731507,13.4980033 C27.2757129,13.5360877 27.8356164,14.1196625 27.8356164,14.8314827 L27.8356164,14.8498937 C27.8356164,15.5863321 27.2365764,16.1853721 26.5002433,16.1853721 L26.39104,16.1853721 C26.2963551,16.8460625 26.0333414,18.27328 25.3802258,19.828217 C24.6793468,21.4971967 23.7371266,22.3317918 23.31904,22.6397282 L23.31904,23.3834258 C23.31904,23.7309195 23.1217797,24.0345425 22.8041644,24.1757282 C22.6922754,24.2259034 22.5710884,24.2519974 22.4484647,24.2523178 Z M10.7853852,22.4472022 L21.21472,22.4472022 C21.3188734,22.4472022 21.4193447,22.4858126 21.4966707,22.5555638 L22.4348932,23.4022575 C22.4415211,23.408149 22.4467814,23.4134093 22.4623518,23.4066762 C22.4775014,23.399943 22.4775014,23.392263 22.4775014,23.3834258 L22.4775014,22.416377 C22.4775014,22.2648811 22.5589304,22.1249578 22.6908581,22.0502619 C22.6999058,22.0450016 23.8165567,21.3781041 24.6043353,19.5023956 C25.4288307,17.5394718 25.5982115,15.7449819 25.5997896,15.727097 C25.6193768,15.5101801 25.8011289,15.3439846 26.0189282,15.3438334 L26.5003485,15.3438334 C26.7729485,15.3435434 26.9938459,15.122599 26.9940778,14.8499989 L26.9940778,14.8315879 C26.993788,14.5590119 26.7729245,14.3381013 26.5003485,14.3377534 L5.49975671,14.3377534 C5.22715669,14.3380434 5.00625934,14.5589879 5.0060274,14.8315879 L5.0060274,14.8499989 C5.00631721,15.122575 5.22718071,15.3434855 5.49975671,15.3438334 L5.98117699,15.3438334 C6.19914505,15.34385 6.38102544,15.5102998 6.40031562,15.7274126 C6.4018937,15.7449819 6.57127452,17.5394718 7.39566466,19.5023956 C8.18344329,21.3782093 9.30019945,22.0450016 9.31135123,22.0515244 C9.44140601,22.1271553 9.52175907,22.2659324 9.52260384,22.416377 L9.52260384,23.3834258 C9.52260384,23.392263 9.52260384,23.399943 9.53775342,23.4066762 C9.55332384,23.4136197 9.55858411,23.4082542 9.56521205,23.4022575 L10.5034345,22.5555638 C10.5807856,22.485822 10.6812357,22.4472162 10.7853852,22.4472022 Z" id="Shape" fill="#352F51" fill-rule="nonzero"></path>
            </g>
        </g>
    </g>
</svg>