<?xml version="1.0" encoding="UTF-8"?>
<svg width="32px" height="32px" viewBox="0 0 32 32" version="1.1" xmlns="http://www.w3.org/2000/svg" xmlns:xlink="http://www.w3.org/1999/xlink">
    <!-- Generator: sketchtool 52 (66869) - http://www.bohemiancoding.com/sketch -->
    <title>84B4024B-62F9-445F-A3C1-EFDC8203E83A@2x</title>
    <desc>Created with sketchtool.</desc>
    <g id="Ver1" stroke="none" stroke-width="1" fill="none" fill-rule="evenodd">
        <g id="icon" transform="translate(-180.000000, -122.000000)">
            <g id="ic-bed" transform="translate(180.000000, 122.000000)">
                <rect id="Rectangle" fill="#F6F6F6" x="0.0208320596" y="0.0208320596" width="31.8832043" height="31.8832043" rx="15.9416021"></rect>
                <path d="M27.4734187,21.8617874 C27.2275319,21.8617874 27.0282013,21.6624568 27.0282013,21.41657 L27.0282013,19.3152552 L4.89666737,19.3152552 L4.89666737,21.41657 C4.89666737,21.6624568 4.69733676,21.8617874 4.45144998,21.8617874 C4.20556321,21.8617874 4.00623259,21.6624568 4.00623259,21.41657 L4.00623259,12.6822952 C4.00623259,12.4364084 4.20556321,12.2370778 4.45144998,12.2370778 C4.69733676,12.2370778 4.89666737,12.4364084 4.89666737,12.6822952 L4.89666737,14.236883 L19.2368969,14.236883 C19.4827837,14.236883 19.6821143,14.4362136 19.6821143,14.6821004 L19.6821143,15.5008552 L21.9431509,15.5008552 C22.1486187,13.8458709 23.5638535,12.5606395 25.2735995,12.5606395 L27.0282013,12.5606395 L27.0282013,10.5082987 C27.0282013,10.2624119 27.2275319,10.0630813 27.4734187,10.0630813 C27.7193055,10.0630813 27.9186361,10.2624119 27.9186361,10.5082987 L27.9186361,21.41657 C27.9186361,21.6624568 27.7193055,21.8617874 27.4734187,21.8617874 Z M19.6821143,18.4248204 L27.0282013,18.4248204 L27.0282013,16.39129 L19.6821143,16.39129 L19.6821143,18.4248204 Z M4.89666737,18.4248204 L18.7916795,18.4248204 L18.7916795,15.1273178 L4.89666737,15.1273178 L4.89666737,18.4248204 Z M22.8429352,15.5008552 L27.0282013,15.5008552 L27.0282013,13.4510743 L25.2735995,13.4510743 C24.0557074,13.4510743 23.0412795,14.3387265 22.8429352,15.5008552 Z" id="Shape" fill="#352F51" fill-rule="nonzero"></path>
            </g>
        </g>
    </g>
</svg>