<?xml version="1.0" encoding="UTF-8"?>
<svg width="32px" height="32px" viewBox="0 0 32 32" version="1.1" xmlns="http://www.w3.org/2000/svg" xmlns:xlink="http://www.w3.org/1999/xlink">
    <!-- Generator: sketchtool 52 (66869) - http://www.bohemiancoding.com/sketch -->
    <title>AC7BEA7B-B08D-4F81-8DB3-3B26BB968D4F@2x</title>
    <desc>Created with sketchtool.</desc>
    <g id="Ver1" stroke="none" stroke-width="1" fill="none" fill-rule="evenodd">
        <g id="icon" transform="translate(-110.000000, -122.000000)">
            <g id="ic-city" transform="translate(110.000000, 122.000000)">
                <rect id="Rectangle" fill="#F6F6F6" x="5.64881475e-13" y="1.10134124e-13" width="31.4024318" height="31.4024318" rx="15.7012159"></rect>
                <g id="map" transform="translate(5.000000, 7.000000)" fill="#111111" fill-rule="nonzero">
                    <path d="M6.4003,17.9240782 L6.3915,17.9239777 L0.5,17.9239777 C0.356287169,17.924018 0.223598471,17.8465293 0.152410526,17.7209894 C0.0812225818,17.5954494 0.0824783044,17.441156 0.1557,17.3168045 L5.4307,8.35230168 C5.5026872,8.22996562 5.63354074,8.15492189 5.7749,8.15490503 L8.7602,8.15490503 L7.5547,6.05524022 C6.8381,4.8072067 6.8381,3.31712849 7.5547,2.06899441 C8.2713,0.820960894 9.5546,0.0759217877 10.9876,0.0759217877 L11.1123,0.0759217877 C12.5454,0.0759217877 13.8287,0.820960894 14.5452,2.06899441 C15.2618,3.31702793 15.2618,4.80710615 14.5452,6.05524022 L13.3396,8.15500559 L16.325,8.15500559 C16.4664,8.15500559 16.5973,8.23002235 16.6692,8.35240223 L17.3654,9.53557542 C17.3686,9.54060335 17.3716,9.5458324 17.3745,9.55106145 L18.3023,11.1278212 C18.3045,11.1314413 18.3067,11.135162 18.3088,11.1389832 L21.9441,17.3170056 C22.0173217,17.4413571 22.0185774,17.5956505 21.9473895,17.7211905 C21.8762015,17.8467305 21.7435128,17.9242191 21.5998,17.9241788 L6.4091,17.9241788 C6.4061,17.9239777 6.4032,17.9240782 6.4003,17.9240782 Z M13.5854,17.1195084 L20.8986,17.1195084 L17.8017,11.8563687 L13.0478,14.0712737 L13.5854,17.1195084 Z M6.9219,17.1195084 L12.7728,17.1195084 L12.2061,13.9067598 C12.1743535,13.726985 12.2670355,13.5482661 12.4318,13.4715419 L17.3921,11.1606034 L16.8474,10.2348603 L12.2793,11.8037765 C12.1686836,11.841784 12.0470688,11.8292316 11.9464369,11.7694201 C11.8458049,11.7096086 11.776227,11.608524 11.756,11.4927486 L11.6831,11.0747263 L11.3964,11.574 C11.3250254,11.6985498 11.1929514,11.775301 11.05,11.775301 C10.9070486,11.775301 10.7749746,11.6985498 10.7036,11.574 L9.2025,8.95947486 L9.1066,8.95947486 L6.9219,17.1195084 Z M1.2015,17.1195084 L6.0935,17.1195084 L8.2781,8.95947486 L6.0031,8.95947486 L1.2015,17.1195084 Z M12.306,9.98969832 L12.4632,10.8905028 L16.4313,9.52763128 L16.097,8.95947486 L12.8976,8.95947486 L12.306,9.98969832 Z M10.9877,0.880391061 C9.8439,0.880391061 8.8195,1.47509497 8.2476,2.47122905 C7.6757,3.46736313 7.6757,4.65677095 8.2476,5.65300559 L11.05,10.5341229 L13.8525,5.65300559 C14.4244,4.65687151 14.4244,3.46746369 13.8525,2.47122905 C13.2806,1.47509497 12.2563,0.880391061 11.1124,0.880391061 L10.9877,0.880391061 Z M11.05,5.78745251 C10.154,5.78745251 9.425,5.05437989 9.425,4.1533743 C9.425,3.25236872 10.154,2.51929609 11.05,2.51929609 C11.946,2.51929609 12.675,3.25236872 12.675,4.1533743 C12.675,5.05437989 11.9461,5.78745251 11.05,5.78745251 Z M11.05,3.32376536 C10.5951,3.32376536 10.225,3.69593296 10.225,4.1533743 C10.225,4.61081564 10.5951,4.98298324 11.05,4.98298324 C11.5049,4.98298324 11.875,4.61081564 11.875,4.1533743 C11.875,3.69593296 11.5049,3.32376536 11.05,3.32376536 Z" id="Shape"></path>
                </g>
            </g>
        </g>
    </g>
</svg>