<?xml version="1.0" encoding="UTF-8"?>
<svg width="32px" height="32px" viewBox="0 0 32 32" version="1.1" xmlns="http://www.w3.org/2000/svg" xmlns:xlink="http://www.w3.org/1999/xlink">
    <!-- Generator: sketchtool 52 (66869) - http://www.bohemiancoding.com/sketch -->
    <title>D2C30B4F-7973-463C-9443-59FCFE1F70E2@2x</title>
    <desc>Created with sketchtool.</desc>
    <g id="Ver1" stroke="none" stroke-width="1" fill="none" fill-rule="evenodd">
        <g id="icon" transform="translate(-110.000000, -276.000000)">
            <g id="ic-price" transform="translate(110.000000, 276.000000)">
                <rect id="Rectangle" fill="#F6F6F6" x="0.131238741" y="0.131238741" width="31.6584669" height="31.6584669" rx="15.8292335"></rect>
                <g id="Group-2" transform="translate(4.000000, 3.000000)" fill="#352F51" fill-rule="nonzero">
                    <path d="M23.7113236,12.1598808 L12.2525829,0.70095934 C12.1751047,0.623428005 12.0699898,0.579866885 11.9603815,0.579866885 C11.8507732,0.579866885 11.7456583,0.623428005 11.66818,0.70095934 L0.209620046,12.1595193 C0.0913666792,12.2776703 0.0559553754,12.4554337 0.11990601,12.6098806 C0.183856645,12.7643274 0.334568005,12.8650244 0.501731105,12.8649951 L3.44479746,12.8652662 L3.44479746,22.9277829 C3.44479746,23.156028 3.62982669,23.3410572 3.85807181,23.3410572 L20.0632332,23.3410572 C20.1728404,23.3410572 20.2779583,23.2975159 20.3554623,23.220012 C20.4329663,23.142508 20.4765076,23.03739 20.4765076,22.9277829 L20.4765076,12.8652662 L23.4192125,12.8652662 C23.5863359,12.8652589 23.7369976,12.7645761 23.80094,12.6101689 C23.8648825,12.4557617 23.8295123,12.2780402 23.7113236,12.1598808 Z M20.0632332,12.0388078 C19.8349881,12.0388078 19.6499589,12.223837 19.6499589,12.4520822 L19.6499589,22.5145989 L4.27134616,22.5145989 L4.27134616,12.4520822 C4.27134617,12.2238723 4.086372,12.0388577 3.85816216,12.0388078 L1.49940828,12.0386271 L11.9604718,1.57765393 L22.4216257,12.0388078 L20.0632332,12.0388078 Z" id="Shape"></path>
                    <path d="M11.5473782,9.99646993 L11.5473782,10.5384069 C10.2334657,10.7042949 9.22341016,11.6484831 9.22341016,12.7847617 C9.22341016,13.9211306 10.2334657,14.8652285 11.5473782,15.0311165 L11.5473782,17.9131043 C10.6920069,17.7697142 10.0499589,17.1922685 10.0499589,16.5027852 C10.0499589,16.2745401 9.86492964,16.0895109 9.63668452,16.0895109 C9.40843939,16.0895109 9.22341016,16.2745401 9.22341016,16.5027852 C9.22341016,17.6388831 10.2334657,18.5828003 11.5473782,18.7486883 L11.5473782,19.291077 C11.5473782,19.5193221 11.7324074,19.7043513 11.9606525,19.7043513 C12.1888976,19.7043513 12.3739269,19.5193221 12.3739269,19.291077 L12.3739269,18.7486883 C13.6875683,18.5828003 14.6973528,17.6388831 14.6973528,16.5027852 C14.6973528,15.3664163 13.6875683,14.4223184 12.3739269,14.2564304 L12.3739269,11.3739909 C13.2289368,11.5174713 13.870804,12.094917 13.870804,12.7846713 C13.870804,13.0129165 14.0558333,13.1979457 14.2840784,13.1979457 C14.5123235,13.1979457 14.6973528,13.0129165 14.6973528,12.7846713 C14.6973528,11.6483928 13.6875683,10.7042949 12.3739269,10.5384069 L12.3739269,9.99637958 C12.3739107,9.84873087 12.2951262,9.71230645 12.1672506,9.63849608 C12.039375,9.5646857 11.8818357,9.56470292 11.7539762,9.63854125 C11.6261168,9.71237958 11.547362,9.84882122 11.5473782,9.99646993 Z M10.0499589,12.7847617 C10.0499589,12.0950073 10.6920069,11.5174713 11.5473782,11.3740812 L11.5473782,14.1956229 C10.6920972,14.0522328 10.0499589,13.474516 10.0499589,12.7847617 Z M13.870804,16.5028756 C13.870804,17.1923589 13.2289368,17.7697142 12.3739269,17.9131043 L12.3739269,15.0921048 C13.2289368,15.2355852 13.870804,15.8132116 13.870804,16.5028756 Z" id="Shape"></path>
                </g>
            </g>
        </g>
    </g>
</svg>