<?xml version="1.0" encoding="UTF-8"?>
<svg width="32px" height="32px" viewBox="0 0 32 32" version="1.1" xmlns="http://www.w3.org/2000/svg" xmlns:xlink="http://www.w3.org/1999/xlink">
    <!-- Generator: sketchtool 52 (66869) - http://www.bohemiancoding.com/sketch -->
    <title>81ADD3FD-F14D-46E8-AEDF-0DC556423D74@2x</title>
    <desc>Created with sketchtool.</desc>
    <g id="Ver1" stroke="none" stroke-width="1" fill="none" fill-rule="evenodd">
        <g id="icon" transform="translate(-183.000000, -274.000000)">
            <g id="ic-squarmeter" transform="translate(183.000000, 274.000000)">
                <rect id="Rectangle" fill="#F6F6F6" x="0.261635462" y="0.261635462" width="31.4024318" height="31.4024318" rx="15.7012159"></rect>
                <g id="Group" transform="translate(4.186939, 4.186939)" fill="#352F51">
                    <path d="M8.35751724,9.11880828 C8.13451913,9.11880828 7.95374345,9.29958396 7.95374345,9.52258207 L7.95374345,15.6491917 C7.95374345,15.7562792 7.99628378,15.8589806 8.07200605,15.9347029 C8.14772833,16.0104252 8.25042977,16.0529655 8.35751724,16.0529655 L20.6102952,16.0529655 C20.7173745,16.0529655 20.8200669,16.0104224 20.8957752,15.9346976 C20.9714834,15.8589727 21.0140041,15.7562711 21.0139807,15.6491917 L21.0139807,9.52258207 C21.0139807,9.29963271 20.8332445,9.11889655 20.6102952,9.11889655 C20.3873458,9.11889655 20.2066097,9.29963271 20.2066097,9.52258207 L20.2066097,15.2454179 L16.9298979,15.2454179 L16.9298979,9.52258207 C16.9299213,9.41550272 16.8874007,9.31280105 16.8116924,9.23707623 C16.7359841,9.16135142 16.6332918,9.11880827 16.5262124,9.11880828 L12.4418648,9.11880828 C12.3347855,9.11880827 12.2320931,9.16135142 12.1563848,9.23707623 C12.0806766,9.31280105 12.0381559,9.41550272 12.0381793,9.52258207 L12.0381793,15.2454179 L8.76137931,15.2454179 L8.76137931,9.52258207 C8.76128185,9.29958987 8.58050946,9.11885699 8.35751724,9.11880828 Z M12.8454621,9.92635586 L16.1224386,9.92635586 L16.1224386,15.2454179 L12.8454621,15.2454179 L12.8454621,9.92635586 Z" id="Shape" fill-rule="nonzero"></path>
                    <path d="M6.10515862,9.80806621 L14.483509,1.42971586 L22.862389,9.80815448 C22.9412193,9.88698483 23.0445021,9.92635586 23.1478731,9.92635586 C23.2512441,9.92635586 23.3545269,9.88689655 23.4333572,9.80806621 C23.5910047,9.65038892 23.5910047,9.39477522 23.4333572,9.23709793 L19.219509,5.02351448 L19.219509,0.858747586 C19.219509,0.635798231 19.0387728,0.455062069 18.8158234,0.455062069 C18.5928741,0.455062069 18.4121379,0.635798231 18.4121379,0.858747586 L18.4121379,4.21614345 L14.7689931,0.573263448 C14.6112855,0.415605933 14.3556441,0.415605933 14.1979366,0.573263448 L5.53419034,9.23709793 C5.38020369,9.39538337 5.38194247,9.64801241 5.53809331,9.80416324 C5.69424415,9.96031408 5.94687319,9.96205286 6.10515862,9.80806621 Z" id="Path"></path>
                    <path d="M23.1478731,18.5783614 C23.0407938,18.5783614 22.9381014,18.6209045 22.8623931,18.6966293 C22.7866849,18.7723542 22.7441642,18.8750558 22.7441876,18.9821352 L22.7441876,20.6614952 L6.22344828,20.6614952 L6.22344828,18.9821352 C6.22344827,18.7591371 6.04267258,18.5783614 5.81967448,18.5783614 C5.59667638,18.5783614 5.4159007,18.7591371 5.41590069,18.9821352 L5.41590069,23.1480497 C5.4159007,23.3710478 5.59667638,23.5518234 5.81967448,23.5518234 C6.04267258,23.5518234 6.22344827,23.3710478 6.22344828,23.1480497 L6.22344828,21.4689545 L22.7441876,21.4689545 L22.7441876,23.1480497 C22.7441876,23.370999 22.9249237,23.5517352 23.1478731,23.5517352 C23.3708225,23.5517352 23.5515586,23.370999 23.5515586,23.1480497 L23.5515586,18.9821352 C23.5516055,18.8750486 23.5090923,18.7723334 23.433379,18.6966035 C23.3576656,18.6208736 23.2549596,18.5783379 23.1478731,18.5783614 Z" id="Path"></path>
                    <path d="M4.56977655,0.80745931 C4.79042256,0.804196562 4.96758029,0.624399782 4.96758029,0.403729655 C4.96758029,0.183059529 4.79042256,0.00326274847 4.56977655,0 L0.403862069,0 C0.259607585,1.57668146e-05 0.126319357,0.0769891877 0.0542057707,0.201925119 C-0.0179078155,0.326861051 -0.0178909902,0.480778753 0.0542499086,0.605698916 C0.126390807,0.730619079 0.259695861,0.807563357 0.403950345,0.807547586 L2.08304552,0.807547586 L2.08304552,17.3282869 L0.403862069,17.3282869 C0.180863961,17.3282869 8.82758621e-05,17.5090626 8.82758621e-05,17.7320607 C8.82758621e-05,17.9550588 0.180863961,18.1358345 0.403862069,18.1358345 L4.56977655,18.1358345 C4.79277465,18.1358345 4.97355031,17.9550588 4.97355031,17.7320607 C4.97355031,17.5090626 4.79277465,17.3282869 4.56977655,17.3282869 L2.89050483,17.3282869 L2.89050483,0.80745931 L4.56977655,0.80745931 Z" id="Path"></path>
                </g>
            </g>
        </g>
    </g>
</svg>